<mxfile host="app.diagrams.net" modified="2021-04-12T12:15:42.090Z" agent="5.0 (Windows)" etag="i9rtvTFseVtWakYv_LQJ" version="14.5.9" type="github">
  <diagram id="C5RBs43oDa-KdzZeNtuy" name="Page-1">
    <mxGraphModel dx="1422" dy="1999" grid="1" gridSize="10" guides="1" tooltips="1" connect="1" arrows="1" fold="1" page="1" pageScale="1" pageWidth="827" pageHeight="1169" math="0" shadow="0">
      <root>
        <mxCell id="WIyWlLk6GJQsqaUBKTNV-0" />
        <mxCell id="WIyWlLk6GJQsqaUBKTNV-1" parent="WIyWlLk6GJQsqaUBKTNV-0" />
        <mxCell id="EI_HXCKidw5IqLJQS2nr-0" value="&lt;h1&gt;Personal Blog&lt;br&gt;&lt;/h1&gt;&lt;p&gt;Personal Blog dengan megunakan teknologi nodeJS (gatsbyJS) + apache web sever dikemas dengan docker&lt;br&gt;&lt;/p&gt;" style="text;html=1;strokeColor=none;fillColor=none;spacing=5;spacingTop=-20;whiteSpace=wrap;overflow=hidden;rounded=0;" vertex="1" parent="WIyWlLk6GJQsqaUBKTNV-1">
          <mxGeometry x="30" y="-90" width="190" height="120" as="geometry" />
        </mxCell>
      </root>
    </mxGraphModel>
  </diagram>
</mxfile>
